# xmcd
#
# Track frame offsets: 
#        150
#        16657
#        30997
#        51413
#        68080
#        83313
#        102990
#        119913
#        136498
#        149849
#        168021
#        187575
#        203862
#        223177
#        238431
#
# Disc length: 3394 seconds
#
# Revision: 3
# Processed by: cddbd v1.5.2PL0 Copyright (c) Steve Scherf et al.
# Submitted via: ExactAudioCopy v1.3
#
DISCID=d50d400f
DTITLE=Various Artist - Masterblaster II
DYEAR=2001
DGENRE=Hip Hop
TTITLE0=Spax - Perspektiven and Relationen (Feat. DJ Brisk Fingers)
TTITLE1=Breite Seite - Viel, Viel Mehr (Feat. Mel Meli)
TTITLE2=Kool Savas - Fick Uns? (Feat. Justus and Phoomuhnshoe)
TTITLE3=KC Da Rookee - Wake Up
TTITLE4=Roey Marquis II - Ming Dynastie (Feat. Chabs, Lunafrow, Profan
TTITLE4=78 and Twister)
TTITLE5=Der Klan - Cool Zu Wissen (Lord Scan Remix)
TTITLE6=Tefla and Jaleel - Differenzen
TTITLE7=Creutzfeld and Jakob - Lass' Die Puppen Tanzen... (Genickbrecher
TTITLE7=Remix)
TTITLE8=Torch - Wer Bin Ich  (Feat. Toni L.) (Boulevard Bou-Remix)
TTITLE9=Stieber Twins - Malaria (Feat. Samy Deluxe and Mad Max) (Twin Pe
TTITLE9=aks Remix)
TTITLE10=Square One - Take Your Time
TTITLE11=Analphabeten - Poseidon's
TTITLE12=MB 1000 - Junkyard 2001
TTITLE13=Echorausch - Wieder Zurück
TTITLE14=DJ Stylewarz - Friday The 13th
EXTD=
EXTT0=
EXTT1=
EXTT2=
EXTT3=
EXTT4=
EXTT5=
EXTT6=
EXTT7=
EXTT8=
EXTT9=
EXTT10=
EXTT11=
EXTT12=
EXTT13=
EXTT14=
PLAYORDER=
